<?xml version="1.0" standalone="no"?>
<!DOCTYPE svg PUBLIC "-//W3C//DTD SVG 20010904//EN"
 "http://www.w3.org/TR/2001/REC-SVG-20010904/DTD/svg10.dtd">
<svg version="1.0" xmlns="http://www.w3.org/2000/svg"
 width="16.000000pt" height="16.000000pt" viewBox="0 0 16.000000 16.000000"
 preserveAspectRatio="xMidYMid meet">
<metadata>
Created by potrace 1.11, written by Peter Selinger 2001-2013
</metadata>
<g transform="translate(0.000000,16.000000) scale(0.001762,-0.001762)"
fill="#000000" stroke="none">
<path d="M30 4540 l0 -4510 4510 0 4510 0 0 4510 0 4510 -4510 0 -4510 0 0
-4510z m7204 1935 c195 -26 336 -60 507 -123 218 -81 420 -201 557 -329 l72
-68 -42 -46 c-43 -45 -234 -252 -253 -273 -5 -6 -64 -69 -129 -141 -65 -71
-125 -136 -131 -143 -10 -11 -29 2 -102 75 -133 132 -295 221 -508 279 -94 26
-112 28 -310 28 -197 0 -216 -2 -310 -27 -221 -60 -427 -193 -567 -367 -97
-121 -182 -307 -225 -493 -23 -98 -26 -134 -27 -287 0 -256 35 -421 131 -616
127 -259 362 -460 629 -539 127 -38 185 -46 359 -52 232 -7 444 19 617 76 l33
11 -3 365 -2 365 -370 0 -370 0 0 360 0 360 775 0 775 0 0 -998 0 -998 -92
-42 c-312 -139 -635 -225 -953 -251 -573 -48 -965 5 -1335 181 -397 188 -674
453 -868 831 -130 252 -191 476 -213 786 -17 240 10 529 69 731 149 509 478
907 946 1142 254 128 526 198 861 222 93 7 365 -4 479 -19z m-5644 -1935 l0
-1870 -412 2 -413 3 -3 1868 -2 1867 415 0 415 0 0 -1870z m3060 1495 l0 -375
-827 0 -828 0 3 -385 2 -385 780 0 780 0 0 -365 0 -365 -780 2 -780 3 -2 -745
-3 -745 -412 -3 -413 -2 0 1870 0 1870 1240 0 1240 0 0 -375z"/>
</g>
</svg>
